<svg xmlns="http://www.w3.org/2000/svg" width="2400" height="1700" viewBox="0 0 2400 1700">
  <defs>
    <style>
      .title { font: 700 34px "SimSun", "Songti SC", serif; fill: #000; }
      .text { font: 24px "SimSun", "Songti SC", serif; fill: #000; }
      .small { font: 20px "SimSun", "Songti SC", serif; fill: #000; }
      .entity { fill: #fff; stroke: #000; stroke-width: 3; }
      .relation { fill: #fff; stroke: #000; stroke-width: 3; }
      .attr { fill: #fff; stroke: #000; stroke-width: 2.4; }
      .line { stroke: #000; stroke-width: 2.4; fill: none; }
      .key { text-decoration: underline; }
    </style>
  </defs>

  <rect width="2400" height="1700" fill="#fff"/>
  <text x="1200" y="55" text-anchor="middle" class="title">图 4-2 系统数据库 E-R 图</text>

  <rect x="1110" y="690" width="180" height="78" class="entity"/>
  <text x="1200" y="739" text-anchor="middle" class="text">设备</text>

  <ellipse cx="930" cy="600" rx="110" ry="42" class="attr"/>
  <text x="930" y="608" text-anchor="middle" class="text key">设备编号</text>
  <line x1="1015" y1="628" x2="1110" y2="700" class="line"/>

  <ellipse cx="1040" cy="500" rx="105" ry="42" class="attr"/>
  <text x="1040" y="508" text-anchor="middle" class="text">设备名称</text>
  <line x1="1090" y1="540" x2="1150" y2="690" class="line"/>

  <ellipse cx="1200" cy="455" rx="85" ry="42" class="attr"/>
  <text x="1200" y="463" text-anchor="middle" class="text">原值</text>
  <line x1="1200" y1="497" x2="1200" y2="690" class="line"/>

  <ellipse cx="1365" cy="500" rx="120" ry="42" class="attr"/>
  <text x="1365" y="508" text-anchor="middle" class="text">规格型号</text>
  <line x1="1310" y1="540" x2="1250" y2="690" class="line"/>

  <ellipse cx="1470" cy="600" rx="80" ry="42" class="attr"/>
  <text x="1470" y="608" text-anchor="middle" class="text">状态</text>
  <line x1="1390" y1="628" x2="1290" y2="705" class="line"/>

  <ellipse cx="1410" cy="790" rx="110" ry="42" class="attr"/>
  <text x="1410" y="798" text-anchor="middle" class="text">购入日期</text>
  <line x1="1300" y1="782" x2="1290" y2="760" class="line"/>

  <rect x="300" y="680" width="180" height="78" class="entity"/>
  <text x="390" y="729" text-anchor="middle" class="text">使用单位</text>
  <ellipse cx="220" cy="560" rx="110" ry="42" class="attr"/>
  <text x="220" y="568" text-anchor="middle" class="text key">单位代码</text>
  <line x1="290" y1="590" x2="350" y2="680" class="line"/>
  <ellipse cx="160" cy="720" rx="110" ry="42" class="attr"/>
  <text x="160" y="728" text-anchor="middle" class="text">单位名称</text>
  <line x1="270" y1="720" x2="300" y2="720" class="line"/>
  <ellipse cx="230" cy="880" rx="90" ry="42" class="attr"/>
  <text x="230" y="888" text-anchor="middle" class="text">负责人</text>
  <line x1="300" y1="845" x2="285" y2="820" class="line"/>

  <polygon points="710,660 830,770 710,880 590,770" class="relation"/>
  <text x="710" y="780" text-anchor="middle" class="text">配置</text>
  <line x1="480" y1="719" x2="590" y2="760" class="line"/>
  <line x1="830" y1="770" x2="1110" y2="729" class="line"/>
  <text x="540" y="700" class="text">1</text>
  <text x="930" y="745" class="text">n</text>

  <rect x="1700" y="680" width="180" height="78" class="entity"/>
  <text x="1790" y="729" text-anchor="middle" class="text">设备分类</text>
  <ellipse cx="1910" cy="560" rx="110" ry="42" class="attr"/>
  <text x="1910" y="568" text-anchor="middle" class="text key">分类编码</text>
  <line x1="1840" y1="590" x2="1785" y2="680" class="line"/>
  <ellipse cx="2010" cy="720" rx="110" ry="42" class="attr"/>
  <text x="2010" y="728" text-anchor="middle" class="text">分类名称</text>
  <line x1="1900" y1="720" x2="1880" y2="720" class="line"/>
  <ellipse cx="1940" cy="880" rx="110" ry="42" class="attr"/>
  <text x="1940" y="888" text-anchor="middle" class="text">使用年限</text>
  <line x1="1850" y1="839" x2="1880" y2="790" class="line"/>
  <ellipse cx="2080" cy="830" rx="90" ry="42" class="attr"/>
  <text x="2080" y="838" text-anchor="middle" class="text">残值率</text>
  <line x1="1990" y1="805" x2="1880" y2="758" class="line"/>

  <polygon points="1550,660 1670,770 1550,880 1430,770" class="relation"/>
  <text x="1550" y="780" text-anchor="middle" class="text">归类</text>
  <line x1="1290" y1="729" x2="1430" y2="770" class="line"/>
  <line x1="1670" y1="770" x2="1700" y2="730" class="line"/>
  <text x="1380" y="706" class="text">n</text>
  <text x="1675" y="725" class="text">1</text>

  <rect x="760" y="1110" width="180" height="78" class="entity"/>
  <text x="850" y="1159" text-anchor="middle" class="text">系统用户</text>
  <ellipse cx="620" cy="1030" rx="100" ry="42" class="attr"/>
  <text x="620" y="1038" text-anchor="middle" class="text key">用户编号</text>
  <line x1="695" y1="1060" x2="790" y2="1110" class="line"/>
  <ellipse cx="615" cy="1160" rx="90" ry="42" class="attr"/>
  <text x="615" y="1168" text-anchor="middle" class="text">用户名</text>
  <line x1="705" y1="1160" x2="760" y2="1150" class="line"/>
  <ellipse cx="650" cy="1290" rx="110" ry="42" class="attr"/>
  <text x="650" y="1298" text-anchor="middle" class="text">真实姓名</text>
  <line x1="735" y1="1262" x2="810" y2="1188" class="line"/>
  <ellipse cx="880" cy="1010" rx="70" ry="42" class="attr"/>
  <text x="880" y="1018" text-anchor="middle" class="text">角色</text>
  <line x1="875" y1="1052" x2="860" y2="1110" class="line"/>
  <ellipse cx="1010" cy="1055" rx="110" ry="42" class="attr"/>
  <text x="1010" y="1063" text-anchor="middle" class="text">所属单位</text>
  <line x1="980" y1="1095" x2="920" y2="1110" class="line"/>

  <polygon points="980,900 1100,1010 980,1120 860,1010" class="relation"/>
  <text x="980" y="1020" text-anchor="middle" class="text">保管</text>
  <line x1="930" y1="1110" x2="915" y2="1090" class="line"/>
  <line x1="1100" y1="900" x2="1160" y2="768" class="line"/>
  <text x="1035" y="900" class="text">n</text>
  <text x="1125" y="855" class="text">1</text>

  <rect x="260" y="1350" width="180" height="78" class="entity"/>
  <text x="350" y="1399" text-anchor="middle" class="text">领用申请</text>
  <ellipse cx="120" cy="1280" rx="100" ry="42" class="attr"/>
  <text x="120" y="1288" text-anchor="middle" class="text key">申请单号</text>
  <line x1="190" y1="1310" x2="285" y2="1350" class="line"/>
  <ellipse cx="95" cy="1410" rx="90" ry="42" class="attr"/>
  <text x="95" y="1418" text-anchor="middle" class="text">申请人</text>
  <line x1="185" y1="1410" x2="260" y2="1395" class="line"/>
  <ellipse cx="215" cy="1520" rx="90" ry="42" class="attr"/>
  <text x="215" y="1528" text-anchor="middle" class="text">审批人</text>
  <line x1="280" y1="1485" x2="300" y2="1428" class="line"/>
  <ellipse cx="455" cy="1470" rx="80" ry="42" class="attr"/>
  <text x="455" y="1478" text-anchor="middle" class="text">状态</text>
  <line x1="430" y1="1428" x2="438" y2="1438" class="line"/>

  <polygon points="600,1260 720,1370 600,1480 480,1370" class="relation"/>
  <text x="600" y="1380" text-anchor="middle" class="text">领用</text>
  <line x1="440" y1="1388" x2="480" y2="1378" class="line"/>
  <line x1="720" y1="1325" x2="1110" y2="760" class="line"/>
  <text x="730" y="1290" class="text">n</text>
  <text x="950" y="965" class="text">1</text>

  <rect x="760" y="1440" width="180" height="78" class="entity"/>
  <text x="850" y="1489" text-anchor="middle" class="text">维修记录</text>
  <ellipse cx="620" cy="1370" rx="100" ry="42" class="attr"/>
  <text x="620" y="1378" text-anchor="middle" class="text key">检修单号</text>
  <line x1="695" y1="1400" x2="790" y2="1440" class="line"/>
  <ellipse cx="590" cy="1520" rx="90" ry="42" class="attr"/>
  <text x="590" y="1528" text-anchor="middle" class="text">报修人</text>
  <line x1="680" y1="1518" x2="760" y2="1495" class="line"/>
  <ellipse cx="790" cy="1620" rx="100" ry="42" class="attr"/>
  <text x="790" y="1628" text-anchor="middle" class="text">检修费用</text>
  <line x1="820" y1="1578" x2="835" y2="1518" class="line"/>
  <ellipse cx="1010" cy="1560" rx="100" ry="42" class="attr"/>
  <text x="1010" y="1568" text-anchor="middle" class="text">工单状态</text>
  <line x1="940" y1="1515" x2="960" y2="1530" class="line"/>

  <polygon points="1030,1260 1150,1370 1030,1480 910,1370" class="relation"/>
  <text x="1030" y="1380" text-anchor="middle" class="text">维修</text>
  <line x1="940" y1="1470" x2="910" y2="1402" class="line"/>
  <line x1="1150" y1="1260" x2="1190" y2="768" class="line"/>
  <text x="1120" y="1225" class="text">n</text>
  <text x="1165" y="955" class="text">1</text>

  <rect x="1460" y="1350" width="180" height="78" class="entity"/>
  <text x="1550" y="1399" text-anchor="middle" class="text">调拨记录</text>
  <ellipse cx="1690" cy="1280" rx="100" ry="42" class="attr"/>
  <text x="1690" y="1288" text-anchor="middle" class="text key">调拨单号</text>
  <line x1="1620" y1="1310" x2="1570" y2="1350" class="line"/>
  <ellipse cx="1690" cy="1410" rx="100" ry="42" class="attr"/>
  <text x="1690" y="1418" text-anchor="middle" class="text">调出单位</text>
  <line x1="1640" y1="1410" x2="1640" y2="1410" class="line"/>
  <ellipse cx="1805" cy="1520" rx="100" ry="42" class="attr"/>
  <text x="1805" y="1528" text-anchor="middle" class="text">调入单位</text>
  <line x1="1715" y1="1485" x2="1605" y2="1428" class="line"/>
  <ellipse cx="1930" cy="1410" rx="100" ry="42" class="attr"/>
  <text x="1930" y="1418" text-anchor="middle" class="text">调拨日期</text>
  <line x1="1830" y1="1410" x2="1640" y2="1410" class="line"/>

  <polygon points="1320,1260 1440,1370 1320,1480 1200,1370" class="relation"/>
  <text x="1320" y="1380" text-anchor="middle" class="text">调拨</text>
  <line x1="1460" y1="1385" x2="1440" y2="1380" class="line"/>
  <line x1="1260" y1="1260" x2="1215" y2="768" class="line"/>
  <text x="1260" y="1225" class="text">1</text>
  <text x="1435" y="1335" class="text">n</text>

  <rect x="1700" y="980" width="180" height="78" class="entity"/>
  <text x="1790" y="1029" text-anchor="middle" class="text">报废记录</text>
  <ellipse cx="1940" cy="960" rx="100" ry="42" class="attr"/>
  <text x="1940" y="968" text-anchor="middle" class="text key">报废单号</text>
  <line x1="1840" y1="995" x2="1880" y2="990" class="line"/>
  <ellipse cx="1940" cy="1085" rx="100" ry="42" class="attr"/>
  <text x="1940" y="1093" text-anchor="middle" class="text">报废日期</text>
  <line x1="1880" y1="1040" x2="1888" y2="1050" class="line"/>
  <ellipse cx="1820" cy="1190" rx="90" ry="42" class="attr"/>
  <text x="1820" y="1198" text-anchor="middle" class="text">审批人</text>
  <line x1="1790" y1="1122" x2="1790" y2="1058" class="line"/>
  <ellipse cx="2040" cy="1190" rx="100" ry="42" class="attr"/>
  <text x="2040" y="1198" text-anchor="middle" class="text">报废原因</text>
  <line x1="1900" y1="1055" x2="1980" y2="1150" class="line"/>

  <polygon points="1540,980 1660,1090 1540,1200 1420,1090" class="relation"/>
  <text x="1540" y="1100" text-anchor="middle" class="text">报废</text>
  <line x1="1660" y1="1090" x2="1700" y2="1020" class="line"/>
  <line x1="1450" y1="990" x2="1260" y2="760" class="line"/>
  <text x="1450" y="960" class="text">1</text>
  <text x="1658" y="1035" class="text">1</text>

  <rect x="1100" y="1030" width="220" height="78" class="entity"/>
  <text x="1210" y="1079" text-anchor="middle" class="text">系统消息</text>
  <ellipse cx="1100" cy="1170" rx="100" ry="42" class="attr"/>
  <text x="1100" y="1178" text-anchor="middle" class="text key">消息编号</text>
  <line x1="1135" y1="1110" x2="1125" y2="1130" class="line"/>
  <ellipse cx="1220" cy="1260" rx="100" ry="42" class="attr"/>
  <text x="1220" y="1268" text-anchor="middle" class="text">事件类型</text>
  <line x1="1215" y1="1108" x2="1220" y2="1218" class="line"/>
  <ellipse cx="1340" cy="1170" rx="100" ry="42" class="attr"/>
  <text x="1340" y="1178" text-anchor="middle" class="text">接收用户</text>
  <line x1="1295" y1="1110" x2="1310" y2="1130" class="line"/>
  <ellipse cx="1460" cy="1260" rx="130" ry="42" class="attr"/>
  <text x="1460" y="1268" text-anchor="middle" class="text">关联业务编号</text>
  <line x1="1315" y1="1100" x2="1405" y2="1220" class="line"/>

  <polygon points="1160,860 1280,970 1160,1080 1040,970" class="relation"/>
  <text x="1160" y="980" text-anchor="middle" class="text">通知</text>
  <line x1="1195" y1="768" x2="1178" y2="860" class="line"/>
  <line x1="1175" y1="1080" x2="1180" y2="1030" class="line"/>
  <text x="1140" y="840" class="text">n</text>
  <text x="1188" y="1110" class="text">n</text>

  <text x="1200" y="1660" text-anchor="middle" class="small">说明：为保证单图可读性，仅保留核心实体、核心联系与关键属性；主键属性以下划线表示。</text>
</svg>
